<?xml version="1.0" encoding="iso-8859-1"?>
<!-- Generator: Adobe Illustrator 19.0.0, SVG Export Plug-In . SVG Version: 6.00 Build 0)  -->
<svg version="1.1" id="Capa_1" xmlns="http://www.w3.org/2000/svg" xmlns:xlink="http://www.w3.org/1999/xlink" x="0px" y="0px"
	 viewBox="0 0 512 512" style="enable-background:new 0 0 512 512;" xml:space="preserve">
<path style="fill:#CFD8DC;" d="M458.667,64H160c-29.455,0-53.333,23.878-53.333,53.333v213.333c0,5.891,4.776,10.667,10.667,10.667
	h341.333C488.122,341.333,512,317.455,512,288V117.333C512,87.878,488.122,64,458.667,64z"/>
<circle style="fill:#4CAF50;" cx="117.33" cy="330.67" r="117.33"/>
<path style="fill:#FFC107;" d="M384,234.667c0.012-6.037,2.615-11.778,7.147-15.765c4.371-3.949,4.713-10.694,0.764-15.066
	c-0.241-0.267-0.496-0.522-0.764-0.764c-17.455-15.83-44.438-14.512-60.268,2.943c-15.83,17.455-14.512,44.438,2.943,60.268
	c16.263,14.748,41.063,14.748,57.325,0c4.371-3.949,4.713-10.694,0.764-15.066c-0.241-0.267-0.496-0.522-0.764-0.764
	C386.609,246.461,384.006,240.711,384,234.667z"/>
<circle style="fill:#455A64;" cx="405.33" cy="234.34" r="35.667"/>
<g>
	<path style="fill:#90A4AE;" d="M202.667,149.333h-21.333c-5.891,0-10.667-4.776-10.667-10.667S175.442,128,181.333,128h21.333
		c5.891,0,10.667,4.776,10.667,10.667S208.558,149.333,202.667,149.333z"/>
	<path style="fill:#90A4AE;" d="M266.667,149.333h-21.333c-5.891,0-10.667-4.776-10.667-10.667S239.442,128,245.333,128h21.333
		c5.891,0,10.667,4.776,10.667,10.667S272.558,149.333,266.667,149.333z"/>
	<path style="fill:#90A4AE;" d="M330.667,149.333h-21.333c-5.891,0-10.667-4.776-10.667-10.667S303.442,128,309.333,128h21.333
		c5.891,0,10.667,4.776,10.667,10.667S336.558,149.333,330.667,149.333z"/>
	<path style="fill:#90A4AE;" d="M394.667,149.333h-21.333c-5.891,0-10.667-4.776-10.667-10.667S367.442,128,373.333,128h21.333
		c5.891,0,10.667,4.776,10.667,10.667S400.558,149.333,394.667,149.333z"/>
	<path style="fill:#90A4AE;" d="M288,213.333h-85.333c-5.891,0-10.667-4.776-10.667-10.667S196.776,192,202.667,192H288
		c5.891,0,10.667,4.776,10.667,10.667S293.891,213.333,288,213.333z"/>
	<path style="fill:#90A4AE;" d="M288,277.333h-21.333c-5.891,0-10.667-4.776-10.667-10.667s4.776-10.667,10.667-10.667H288
		c5.891,0,10.667,4.776,10.667,10.667C298.667,272.558,293.891,277.333,288,277.333z"/>
</g>
<g>
	<path style="fill:#FAFAFA;" d="M160,384c-2.831,0.005-5.548-1.115-7.552-3.115l-85.333-85.333
		c-4.093-4.237-3.975-10.99,0.262-15.083c4.134-3.992,10.687-3.992,14.82,0l85.333,85.333c4.159,4.172,4.149,10.926-0.024,15.085
		C165.514,382.875,162.815,383.994,160,384z"/>
	<path style="fill:#FAFAFA;" d="M74.667,384c-5.891,0.011-10.675-4.757-10.686-10.648c-0.005-2.84,1.123-5.565,3.134-7.571
		l85.333-85.333c4.237-4.092,10.99-3.975,15.083,0.262c3.992,4.134,3.992,10.687,0,14.82l-85.333,85.333
		C80.202,382.866,77.493,383.994,74.667,384z"/>
</g>
<path d="M117.333,448C52.532,448,0,395.468,0,330.667s52.532-117.333,117.333-117.333s117.333,52.532,117.333,117.333
	C234.584,395.434,182.101,447.918,117.333,448z M117.333,234.667c-53.019,0-96,42.981-96,96s42.981,96,96,96s96-42.981,96-96
	S170.353,234.667,117.333,234.667z"/>
<path d="M458.667,341.333h-192c-5.891,0-10.667-4.776-10.667-10.667s4.776-10.667,10.667-10.667h192c17.673,0,32-14.327,32-32
	V117.333c0-17.673-14.327-32-32-32H160c-17.673,0-32,14.327-32,32v64c0,5.891-4.776,10.667-10.667,10.667
	s-10.667-4.776-10.667-10.667v-64C106.667,87.878,130.545,64,160,64h298.667C488.122,64,512,87.878,512,117.333V288
	C512,317.455,488.122,341.333,458.667,341.333z"/>
<path d="M362.667,277.333c-23.564,0.094-42.743-18.932-42.837-42.496s18.932-42.743,42.496-42.837
	c10.649-0.043,20.93,3.899,28.821,11.05c4.377,3.943,4.729,10.687,0.786,15.064c-0.248,0.276-0.511,0.538-0.786,0.786
	c-8.713,7.63-9.59,20.879-1.96,29.592c0.609,0.696,1.264,1.35,1.96,1.96c4.377,3.943,4.729,10.687,0.786,15.064
	c-0.248,0.276-0.511,0.538-0.786,0.786C383.339,273.369,373.196,277.297,362.667,277.333z M362.667,213.333
	c-11.782,0-21.333,9.551-21.333,21.333c0.258,11.968,10.169,21.46,22.137,21.202c1.548-0.033,3.088-0.233,4.594-0.594
	c-7.199-12.796-7.199-28.42,0-41.216C366.305,213.577,364.49,213.333,362.667,213.333z"/>
<path d="M405.333,277.333c-23.564,0-42.667-19.103-42.667-42.667S381.769,192,405.333,192S448,211.103,448,234.667
	S428.898,277.333,405.333,277.333z M405.333,213.333c-11.782,0-21.333,9.551-21.333,21.333S393.551,256,405.333,256
	s21.333-9.551,21.333-21.333S417.115,213.333,405.333,213.333z"/>
<path d="M202.667,149.333h-21.333c-5.891,0-10.667-4.776-10.667-10.667S175.442,128,181.333,128h21.333
	c5.891,0,10.667,4.776,10.667,10.667S208.558,149.333,202.667,149.333z"/>
<path d="M266.667,149.333h-21.333c-5.891,0-10.667-4.776-10.667-10.667S239.442,128,245.333,128h21.333
	c5.891,0,10.667,4.776,10.667,10.667S272.558,149.333,266.667,149.333z"/>
<path d="M330.667,149.333h-21.333c-5.891,0-10.667-4.776-10.667-10.667S303.442,128,309.333,128h21.333
	c5.891,0,10.667,4.776,10.667,10.667S336.558,149.333,330.667,149.333z"/>
<path d="M394.667,149.333h-21.333c-5.891,0-10.667-4.776-10.667-10.667S367.442,128,373.333,128h21.333
	c5.891,0,10.667,4.776,10.667,10.667S400.558,149.333,394.667,149.333z"/>
<path d="M288,213.333h-85.333c-5.891,0-10.667-4.776-10.667-10.667S196.776,192,202.667,192H288c5.891,0,10.667,4.776,10.667,10.667
	S293.891,213.333,288,213.333z"/>
<path d="M288,277.333h-21.333c-5.891,0-10.667-4.776-10.667-10.667s4.776-10.667,10.667-10.667H288
	c5.891,0,10.667,4.776,10.667,10.667C298.667,272.558,293.891,277.333,288,277.333z"/>
<g>
</g>
<g>
</g>
<g>
</g>
<g>
</g>
<g>
</g>
<g>
</g>
<g>
</g>
<g>
</g>
<g>
</g>
<g>
</g>
<g>
</g>
<g>
</g>
<g>
</g>
<g>
</g>
<g>
</g>
</svg>
